<mxfile host="app.diagrams.net" modified="2024-05-27T20:57:41.993Z" agent="Mozilla/5.0 (Windows NT 10.0; Win64; x64) AppleWebKit/537.36 (KHTML, like Gecko) Chrome/125.0.0.0 Safari/537.36" etag="SnWrt4u8H3uC9MTmZ0gr" version="24.4.9" type="github" pages="2">
  <diagram id="C5RBs43oDa-KdzZeNtuy" name="Page-1">
    <mxGraphModel dx="1434" dy="822" grid="1" gridSize="10" guides="1" tooltips="1" connect="1" arrows="1" fold="1" page="1" pageScale="1" pageWidth="827" pageHeight="1169" math="0" shadow="0">
      <root>
        <mxCell id="WIyWlLk6GJQsqaUBKTNV-0" />
        <mxCell id="WIyWlLk6GJQsqaUBKTNV-1" parent="WIyWlLk6GJQsqaUBKTNV-0" />
        <mxCell id="qqCcx7K3cf1BUG71xpHP-2" style="edgeStyle=none;curved=1;rounded=0;orthogonalLoop=1;jettySize=auto;html=1;fontSize=12;startSize=8;endSize=8;exitX=1;exitY=0.5;exitDx=0;exitDy=0;entryX=0;entryY=0.5;entryDx=0;entryDy=0;" edge="1" parent="WIyWlLk6GJQsqaUBKTNV-1" source="RuHiXuNGscGa57FSprvj-7" target="qqCcx7K3cf1BUG71xpHP-18">
          <mxGeometry relative="1" as="geometry">
            <mxPoint x="780" y="350" as="sourcePoint" />
            <mxPoint x="950" y="515" as="targetPoint" />
          </mxGeometry>
        </mxCell>
        <mxCell id="RuHiXuNGscGa57FSprvj-22" value="message, args" style="edgeLabel;html=1;align=center;verticalAlign=middle;resizable=0;points=[];fontSize=12;" vertex="1" connectable="0" parent="qqCcx7K3cf1BUG71xpHP-2">
          <mxGeometry x="0.0933" y="-4" relative="1" as="geometry">
            <mxPoint as="offset" />
          </mxGeometry>
        </mxCell>
        <mxCell id="RuHiXuNGscGa57FSprvj-20" style="edgeStyle=none;curved=1;rounded=0;orthogonalLoop=1;jettySize=auto;html=1;entryX=0;entryY=0.5;entryDx=0;entryDy=0;fontSize=12;startSize=8;endSize=8;" edge="1" parent="WIyWlLk6GJQsqaUBKTNV-1" source="qqCcx7K3cf1BUG71xpHP-5" target="RuHiXuNGscGa57FSprvj-13">
          <mxGeometry relative="1" as="geometry">
            <Array as="points">
              <mxPoint x="140" y="290" />
            </Array>
          </mxGeometry>
        </mxCell>
        <mxCell id="RuHiXuNGscGa57FSprvj-21" value="richard&lt;div&gt;allow&lt;/div&gt;&lt;div&gt;queue&lt;/div&gt;&lt;div&gt;play&amp;nbsp;&lt;/div&gt;&lt;div&gt;billboard&lt;/div&gt;&lt;div&gt;blackjack&lt;/div&gt;&lt;div&gt;clear&lt;/div&gt;&lt;div&gt;ping&lt;/div&gt;&lt;div&gt;shuffle&lt;/div&gt;&lt;div&gt;skip&lt;/div&gt;&lt;div&gt;balance&lt;/div&gt;&lt;div&gt;transfer&lt;/div&gt;&lt;div&gt;leaderboard&lt;/div&gt;" style="edgeLabel;html=1;align=center;verticalAlign=middle;resizable=0;points=[];fontSize=12;" vertex="1" connectable="0" parent="RuHiXuNGscGa57FSprvj-20">
          <mxGeometry x="0.3523" y="89" relative="1" as="geometry">
            <mxPoint as="offset" />
          </mxGeometry>
        </mxCell>
        <object label="Commands" wqfwqfwf="wqfqwefqwefqwe" placeholders="1" id="qqCcx7K3cf1BUG71xpHP-5">
          <mxCell style="swimlane;whiteSpace=wrap;html=1;" vertex="1" parent="WIyWlLk6GJQsqaUBKTNV-1">
            <mxGeometry x="620" y="5" width="200" height="200" as="geometry">
              <mxRectangle x="130" y="230" width="140" height="30" as="alternateBounds" />
            </mxGeometry>
          </mxCell>
        </object>
        <mxCell id="qqCcx7K3cf1BUG71xpHP-11" value="Currency" style="rounded=1;whiteSpace=wrap;html=1;" vertex="1" parent="qqCcx7K3cf1BUG71xpHP-5">
          <mxGeometry x="45" y="30" width="110" height="30" as="geometry" />
        </mxCell>
        <mxCell id="qqCcx7K3cf1BUG71xpHP-10" value="Music" style="rounded=1;whiteSpace=wrap;html=1;" vertex="1" parent="qqCcx7K3cf1BUG71xpHP-5">
          <mxGeometry x="45" y="70" width="110" height="30" as="geometry" />
        </mxCell>
        <mxCell id="qqCcx7K3cf1BUG71xpHP-9" value="Random&lt;span style=&quot;color: rgba(0, 0, 0, 0); font-family: monospace; font-size: 0px; text-align: start; text-wrap: nowrap;&quot;&gt;%3CmxGraphModel%3E%3Croot%3E%3CmxCell%20id%3D%220%22%2F%3E%3CmxCell%20id%3D%221%22%20parent%3D%220%22%2F%3E%3CmxCell%20id%3D%222%22%20value%3D%22%22%20style%3D%22rounded%3D1%3BwhiteSpace%3Dwrap%3Bhtml%3D1%3B%22%20vertex%3D%221%22%20parent%3D%221%22%3E%3CmxGeometry%20x%3D%22230%22%20y%3D%22180%22%20width%3D%22110%22%20height%3D%2230%22%20as%3D%22geometry%22%2F%3E%3C%2FmxCell%3E%3C%2Froot%3E%3C%2FmxGraphModel%3E&lt;/span&gt;" style="rounded=1;whiteSpace=wrap;html=1;" vertex="1" parent="qqCcx7K3cf1BUG71xpHP-5">
          <mxGeometry x="45" y="110" width="110" height="30" as="geometry" />
        </mxCell>
        <mxCell id="qqCcx7K3cf1BUG71xpHP-12" value="games" style="rounded=1;whiteSpace=wrap;html=1;" vertex="1" parent="qqCcx7K3cf1BUG71xpHP-5">
          <mxGeometry x="45" y="150" width="110" height="30" as="geometry" />
        </mxCell>
        <mxCell id="RuHiXuNGscGa57FSprvj-74" style="edgeStyle=none;curved=1;rounded=0;orthogonalLoop=1;jettySize=auto;html=1;entryX=0;entryY=0.5;entryDx=0;entryDy=0;fontSize=12;startSize=8;endSize=8;" edge="1" parent="WIyWlLk6GJQsqaUBKTNV-1" source="1wV5xfBR04cciJqK4TtK-1" target="RuHiXuNGscGa57FSprvj-26">
          <mxGeometry relative="1" as="geometry" />
        </mxCell>
        <mxCell id="1wV5xfBR04cciJqK4TtK-1" value="Blackjack.js" style="swimlane;fontStyle=0;childLayout=stackLayout;horizontal=1;startSize=30;horizontalStack=0;resizeParent=1;resizeParentMax=0;resizeLast=0;collapsible=1;marginBottom=0;whiteSpace=wrap;html=1;" vertex="1" parent="WIyWlLk6GJQsqaUBKTNV-1">
          <mxGeometry x="990" y="470" width="200" height="210" as="geometry" />
        </mxCell>
        <mxCell id="qqCcx7K3cf1BUG71xpHP-18" value="execute" style="text;strokeColor=none;fillColor=none;align=left;verticalAlign=middle;spacingLeft=4;spacingRight=4;overflow=hidden;points=[[0,0.5],[1,0.5]];portConstraint=eastwest;rotatable=0;whiteSpace=wrap;html=1;" vertex="1" parent="1wV5xfBR04cciJqK4TtK-1">
          <mxGeometry y="30" width="200" height="30" as="geometry" />
        </mxCell>
        <mxCell id="qqCcx7K3cf1BUG71xpHP-19" value="getChannel()" style="text;strokeColor=none;fillColor=none;align=left;verticalAlign=middle;spacingLeft=4;spacingRight=4;overflow=hidden;points=[[0,0.5],[1,0.5]];portConstraint=eastwest;rotatable=0;whiteSpace=wrap;html=1;" vertex="1" parent="1wV5xfBR04cciJqK4TtK-1">
          <mxGeometry y="60" width="200" height="30" as="geometry" />
        </mxCell>
        <mxCell id="qqCcx7K3cf1BUG71xpHP-20" value="makeBet(player, channel)" style="text;strokeColor=none;fillColor=none;align=left;verticalAlign=middle;spacingLeft=4;spacingRight=4;overflow=hidden;points=[[0,0.5],[1,0.5]];portConstraint=eastwest;rotatable=0;whiteSpace=wrap;html=1;" vertex="1" parent="1wV5xfBR04cciJqK4TtK-1">
          <mxGeometry y="90" width="200" height="30" as="geometry" />
        </mxCell>
        <mxCell id="qqCcx7K3cf1BUG71xpHP-21" value="startGame()" style="text;strokeColor=none;fillColor=none;align=left;verticalAlign=middle;spacingLeft=4;spacingRight=4;overflow=hidden;points=[[0,0.5],[1,0.5]];portConstraint=eastwest;rotatable=0;whiteSpace=wrap;html=1;" vertex="1" parent="1wV5xfBR04cciJqK4TtK-1">
          <mxGeometry y="120" width="200" height="30" as="geometry" />
        </mxCell>
        <mxCell id="qqCcx7K3cf1BUG71xpHP-22" value="playerTurn()" style="text;strokeColor=none;fillColor=none;align=left;verticalAlign=middle;spacingLeft=4;spacingRight=4;overflow=hidden;points=[[0,0.5],[1,0.5]];portConstraint=eastwest;rotatable=0;whiteSpace=wrap;html=1;" vertex="1" parent="1wV5xfBR04cciJqK4TtK-1">
          <mxGeometry y="150" width="200" height="30" as="geometry" />
        </mxCell>
        <mxCell id="qqCcx7K3cf1BUG71xpHP-23" value="dealerTurn()" style="text;strokeColor=none;fillColor=none;align=left;verticalAlign=middle;spacingLeft=4;spacingRight=4;overflow=hidden;points=[[0,0.5],[1,0.5]];portConstraint=eastwest;rotatable=0;whiteSpace=wrap;html=1;" vertex="1" parent="1wV5xfBR04cciJqK4TtK-1">
          <mxGeometry y="180" width="200" height="30" as="geometry" />
        </mxCell>
        <mxCell id="RuHiXuNGscGa57FSprvj-1" value="Index.js" style="swimlane;fontStyle=0;childLayout=stackLayout;horizontal=1;startSize=30;horizontalStack=0;resizeParent=1;resizeParentMax=0;resizeLast=0;collapsible=1;marginBottom=0;whiteSpace=wrap;html=1;" vertex="1" parent="WIyWlLk6GJQsqaUBKTNV-1">
          <mxGeometry x="620" y="320" width="190" height="300" as="geometry" />
        </mxCell>
        <mxCell id="RuHiXuNGscGa57FSprvj-2" value="process.on(&#39;uncaughtException&#39;, callback)" style="text;strokeColor=none;fillColor=none;align=left;verticalAlign=middle;spacingLeft=4;spacingRight=4;overflow=hidden;points=[[0,0.5],[1,0.5]];portConstraint=eastwest;rotatable=0;whiteSpace=wrap;html=1;" vertex="1" parent="RuHiXuNGscGa57FSprvj-1">
          <mxGeometry y="30" width="190" height="30" as="geometry" />
        </mxCell>
        <mxCell id="RuHiXuNGscGa57FSprvj-3" value="process.on(&#39;unhandledRejection&#39;, callback)" style="text;strokeColor=none;fillColor=none;align=left;verticalAlign=middle;spacingLeft=4;spacingRight=4;overflow=hidden;points=[[0,0.5],[1,0.5]];portConstraint=eastwest;rotatable=0;whiteSpace=wrap;html=1;" vertex="1" parent="RuHiXuNGscGa57FSprvj-1">
          <mxGeometry y="60" width="190" height="30" as="geometry" />
        </mxCell>
        <mxCell id="RuHiXuNGscGa57FSprvj-4" value="client.on(&#39;sharderror&#39;, callback)" style="text;strokeColor=none;fillColor=none;align=left;verticalAlign=middle;spacingLeft=4;spacingRight=4;overflow=hidden;points=[[0,0.5],[1,0.5]];portConstraint=eastwest;rotatable=0;whiteSpace=wrap;html=1;" vertex="1" parent="RuHiXuNGscGa57FSprvj-1">
          <mxGeometry y="90" width="190" height="30" as="geometry" />
        </mxCell>
        <mxCell id="RuHiXuNGscGa57FSprvj-6" value="player.events.on(&#39;playerError&#39;, callback)" style="text;strokeColor=none;fillColor=none;align=left;verticalAlign=middle;spacingLeft=4;spacingRight=4;overflow=hidden;points=[[0,0.5],[1,0.5]];portConstraint=eastwest;rotatable=0;whiteSpace=wrap;html=1;" vertex="1" parent="RuHiXuNGscGa57FSprvj-1">
          <mxGeometry y="120" width="190" height="30" as="geometry" />
        </mxCell>
        <mxCell id="RuHiXuNGscGa57FSprvj-10" value="player.events.on(&#39;playerStart&#39;, callback)" style="text;strokeColor=none;fillColor=none;align=left;verticalAlign=middle;spacingLeft=4;spacingRight=4;overflow=hidden;points=[[0,0.5],[1,0.5]];portConstraint=eastwest;rotatable=0;whiteSpace=wrap;html=1;" vertex="1" parent="RuHiXuNGscGa57FSprvj-1">
          <mxGeometry y="150" width="190" height="30" as="geometry" />
        </mxCell>
        <mxCell id="RuHiXuNGscGa57FSprvj-7" value="&lt;div&gt;client.on(&#39;messageCreate&#39;, callback)&lt;/div&gt;&lt;div&gt;&lt;br&gt;&lt;/div&gt;" style="text;strokeColor=none;fillColor=none;align=left;verticalAlign=middle;spacingLeft=4;spacingRight=4;overflow=hidden;points=[[0,0.5],[1,0.5]];portConstraint=eastwest;rotatable=0;whiteSpace=wrap;html=1;" vertex="1" parent="RuHiXuNGscGa57FSprvj-1">
          <mxGeometry y="180" width="190" height="30" as="geometry" />
        </mxCell>
        <mxCell id="RuHiXuNGscGa57FSprvj-8" value="client.on(&#39;guildMemberAdd&#39;, callback)" style="text;strokeColor=none;fillColor=none;align=left;verticalAlign=middle;spacingLeft=4;spacingRight=4;overflow=hidden;points=[[0,0.5],[1,0.5]];portConstraint=eastwest;rotatable=0;whiteSpace=wrap;html=1;" vertex="1" parent="RuHiXuNGscGa57FSprvj-1">
          <mxGeometry y="210" width="190" height="30" as="geometry" />
        </mxCell>
        <mxCell id="RuHiXuNGscGa57FSprvj-9" value="client.once(&#39;ready&#39;, callback)" style="text;strokeColor=none;fillColor=none;align=left;verticalAlign=middle;spacingLeft=4;spacingRight=4;overflow=hidden;points=[[0,0.5],[1,0.5]];portConstraint=eastwest;rotatable=0;whiteSpace=wrap;html=1;" vertex="1" parent="RuHiXuNGscGa57FSprvj-1">
          <mxGeometry y="240" width="190" height="30" as="geometry" />
        </mxCell>
        <mxCell id="RuHiXuNGscGa57FSprvj-13" value="loadCommands(dir)" style="text;strokeColor=none;fillColor=none;align=left;verticalAlign=middle;spacingLeft=4;spacingRight=4;overflow=hidden;points=[[0,0.5],[1,0.5]];portConstraint=eastwest;rotatable=0;whiteSpace=wrap;html=1;" vertex="1" parent="RuHiXuNGscGa57FSprvj-1">
          <mxGeometry y="270" width="190" height="30" as="geometry" />
        </mxCell>
        <mxCell id="RuHiXuNGscGa57FSprvj-73" value="" style="group;rounded=0;glass=0;fillColor=#f8cecc;fillStyle=auto;gradientDirection=north;strokeColor=#b85450;labelBorderColor=default;" vertex="1" connectable="0" parent="WIyWlLk6GJQsqaUBKTNV-1">
          <mxGeometry x="1210" y="470" width="350" height="250" as="geometry" />
        </mxCell>
        <mxCell id="RuHiXuNGscGa57FSprvj-23" value="execute" style="text;strokeColor=none;fillColor=none;align=left;verticalAlign=middle;spacingLeft=4;spacingRight=4;overflow=hidden;points=[[0,0.5],[1,0.5]];portConstraint=eastwest;rotatable=0;whiteSpace=wrap;html=1;" vertex="1" parent="RuHiXuNGscGa57FSprvj-73">
          <mxGeometry x="10.294117647058822" y="10" width="61.764705882352935" height="30" as="geometry" />
        </mxCell>
        <mxCell id="RuHiXuNGscGa57FSprvj-24" value="getChannel(string)&lt;div&gt;&lt;br&gt;&lt;/div&gt;" style="text;strokeColor=none;fillColor=none;align=left;verticalAlign=middle;spacingLeft=4;spacingRight=4;overflow=hidden;points=[[0,0.5],[1,0.5]];portConstraint=eastwest;rotatable=0;whiteSpace=wrap;html=1;" vertex="1" parent="RuHiXuNGscGa57FSprvj-73">
          <mxGeometry x="164.70588235294116" y="10" width="128.6764705882353" height="30" as="geometry" />
        </mxCell>
        <mxCell id="RuHiXuNGscGa57FSprvj-46" style="edgeStyle=none;curved=1;rounded=0;orthogonalLoop=1;jettySize=auto;html=1;fontSize=12;startSize=8;endSize=8;" edge="1" parent="RuHiXuNGscGa57FSprvj-73" source="RuHiXuNGscGa57FSprvj-25" target="RuHiXuNGscGa57FSprvj-27">
          <mxGeometry relative="1" as="geometry" />
        </mxCell>
        <mxCell id="RuHiXuNGscGa57FSprvj-25" value="makeBet(player, channel)" style="text;strokeColor=none;fillColor=none;align=left;verticalAlign=middle;spacingLeft=4;spacingRight=4;overflow=hidden;points=[[0,0.5],[1,0.5]];portConstraint=eastwest;rotatable=0;whiteSpace=wrap;html=1;" vertex="1" parent="RuHiXuNGscGa57FSprvj-73">
          <mxGeometry x="175" y="90" width="154.41176470588235" height="30" as="geometry" />
        </mxCell>
        <mxCell id="RuHiXuNGscGa57FSprvj-45" style="edgeStyle=none;curved=1;rounded=0;orthogonalLoop=1;jettySize=auto;html=1;entryX=0;entryY=0.5;entryDx=0;entryDy=0;fontSize=12;startSize=8;endSize=8;" edge="1" parent="RuHiXuNGscGa57FSprvj-73" source="RuHiXuNGscGa57FSprvj-26" target="RuHiXuNGscGa57FSprvj-25">
          <mxGeometry relative="1" as="geometry" />
        </mxCell>
        <mxCell id="RuHiXuNGscGa57FSprvj-26" value="InitializeGame" style="text;strokeColor=none;fillColor=none;align=left;verticalAlign=middle;spacingLeft=4;spacingRight=4;overflow=hidden;points=[[0,0.5],[1,0.5]];portConstraint=eastwest;rotatable=0;whiteSpace=wrap;html=1;" vertex="1" parent="RuHiXuNGscGa57FSprvj-73">
          <mxGeometry y="90" width="92.64705882352942" height="30" as="geometry" />
        </mxCell>
        <mxCell id="RuHiXuNGscGa57FSprvj-47" style="edgeStyle=none;curved=1;rounded=0;orthogonalLoop=1;jettySize=auto;html=1;fontSize=12;startSize=8;endSize=8;" edge="1" parent="RuHiXuNGscGa57FSprvj-73" source="RuHiXuNGscGa57FSprvj-27" target="RuHiXuNGscGa57FSprvj-28">
          <mxGeometry relative="1" as="geometry" />
        </mxCell>
        <mxCell id="RuHiXuNGscGa57FSprvj-27" value="playerTurn()" style="text;strokeColor=none;fillColor=none;align=left;verticalAlign=middle;spacingLeft=4;spacingRight=4;overflow=hidden;points=[[0,0.5],[1,0.5]];portConstraint=eastwest;rotatable=0;whiteSpace=wrap;html=1;" vertex="1" parent="RuHiXuNGscGa57FSprvj-73">
          <mxGeometry x="205.88235294117646" y="150" width="92.64705882352942" height="30" as="geometry" />
        </mxCell>
        <mxCell id="RuHiXuNGscGa57FSprvj-57" style="edgeStyle=orthogonalEdgeStyle;rounded=0;orthogonalLoop=1;jettySize=auto;html=1;fontSize=12;startSize=8;endSize=8;entryX=1;entryY=0.5;entryDx=0;entryDy=0;" edge="1" parent="RuHiXuNGscGa57FSprvj-73" source="RuHiXuNGscGa57FSprvj-28" target="RuHiXuNGscGa57FSprvj-25">
          <mxGeometry relative="1" as="geometry">
            <mxPoint x="370.5882352941177" y="235" as="targetPoint" />
            <Array as="points">
              <mxPoint x="350" y="235" />
              <mxPoint x="350" y="105" />
            </Array>
          </mxGeometry>
        </mxCell>
        <mxCell id="RuHiXuNGscGa57FSprvj-69" style="edgeStyle=none;curved=1;rounded=0;orthogonalLoop=1;jettySize=auto;html=1;fontSize=12;startSize=8;endSize=8;entryX=1;entryY=0.5;entryDx=0;entryDy=0;" edge="1" parent="RuHiXuNGscGa57FSprvj-73" source="RuHiXuNGscGa57FSprvj-28" target="RuHiXuNGscGa57FSprvj-71">
          <mxGeometry relative="1" as="geometry">
            <mxPoint x="92.64705882352942" y="235" as="targetPoint" />
          </mxGeometry>
        </mxCell>
        <mxCell id="RuHiXuNGscGa57FSprvj-70" value=".end" style="edgeLabel;html=1;align=center;verticalAlign=middle;resizable=0;points=[];fontSize=12;" vertex="1" connectable="0" parent="RuHiXuNGscGa57FSprvj-69">
          <mxGeometry x="0.1304" y="-1" relative="1" as="geometry">
            <mxPoint as="offset" />
          </mxGeometry>
        </mxCell>
        <mxCell id="RuHiXuNGscGa57FSprvj-28" value="dealerTurn()" style="text;strokeColor=none;fillColor=none;align=left;verticalAlign=middle;spacingLeft=4;spacingRight=4;overflow=hidden;points=[[0,0.5],[1,0.5]];portConstraint=eastwest;rotatable=0;whiteSpace=wrap;html=1;" vertex="1" parent="RuHiXuNGscGa57FSprvj-73">
          <mxGeometry x="211.02941176470588" y="220" width="82.35294117647058" height="30" as="geometry" />
        </mxCell>
        <mxCell id="RuHiXuNGscGa57FSprvj-42" style="edgeStyle=none;curved=1;rounded=0;orthogonalLoop=1;jettySize=auto;html=1;fontSize=12;startSize=8;endSize=8;entryX=0.444;entryY=0;entryDx=0;entryDy=0;entryPerimeter=0;" edge="1" parent="RuHiXuNGscGa57FSprvj-73" source="RuHiXuNGscGa57FSprvj-23" target="RuHiXuNGscGa57FSprvj-26">
          <mxGeometry relative="1" as="geometry">
            <mxPoint x="20.588235294117645" y="130" as="targetPoint" />
          </mxGeometry>
        </mxCell>
        <mxCell id="RuHiXuNGscGa57FSprvj-68" value="channel" style="edgeLabel;html=1;align=center;verticalAlign=middle;resizable=0;points=[];fontSize=12;" vertex="1" connectable="0" parent="RuHiXuNGscGa57FSprvj-42">
          <mxGeometry x="-0.2002" y="7" relative="1" as="geometry">
            <mxPoint x="13" as="offset" />
          </mxGeometry>
        </mxCell>
        <mxCell id="RuHiXuNGscGa57FSprvj-64" value="" style="endArrow=classic;startArrow=classic;html=1;rounded=0;fontSize=12;startSize=8;endSize=8;curved=1;exitX=1;exitY=0.5;exitDx=0;exitDy=0;entryX=0;entryY=0.5;entryDx=0;entryDy=0;" edge="1" parent="RuHiXuNGscGa57FSprvj-73" source="RuHiXuNGscGa57FSprvj-23" target="RuHiXuNGscGa57FSprvj-24">
          <mxGeometry width="50" height="50" relative="1" as="geometry">
            <mxPoint x="226.47058823529412" as="sourcePoint" />
            <mxPoint x="277.94117647058823" y="-50" as="targetPoint" />
          </mxGeometry>
        </mxCell>
        <mxCell id="RuHiXuNGscGa57FSprvj-65" value="&#39;games&#39;" style="edgeLabel;html=1;align=center;verticalAlign=middle;resizable=0;points=[];fontSize=12;" vertex="1" connectable="0" parent="RuHiXuNGscGa57FSprvj-64">
          <mxGeometry x="0.1" y="3" relative="1" as="geometry">
            <mxPoint x="-4" y="-7" as="offset" />
          </mxGeometry>
        </mxCell>
        <mxCell id="RuHiXuNGscGa57FSprvj-71" value="release" style="text;strokeColor=none;fillColor=none;align=left;verticalAlign=middle;spacingLeft=4;spacingRight=4;overflow=hidden;points=[[0,0.5],[1,0.5]];portConstraint=eastwest;rotatable=0;whiteSpace=wrap;html=1;" vertex="1" parent="RuHiXuNGscGa57FSprvj-73">
          <mxGeometry x="30.882352941176467" y="220" width="61.764705882352935" height="30" as="geometry" />
        </mxCell>
      </root>
    </mxGraphModel>
  </diagram>
  <diagram id="KS-iO_DEovuoQv8F86zJ" name="Page-2">
    <mxGraphModel grid="0" page="0" gridSize="10" guides="1" tooltips="1" connect="1" arrows="1" fold="1" pageScale="1" pageWidth="827" pageHeight="1169" math="0" shadow="0">
      <root>
        <mxCell id="0" />
        <mxCell id="1" parent="0" />
      </root>
    </mxGraphModel>
  </diagram>
</mxfile>
